<svg width="27" height="27" viewBox="0 0 27 27" fill="none" xmlns="http://www.w3.org/2000/svg">
<g id="Group 80">
<path id="Vector" d="M17.2517 2.04736C19.0988 2.54307 20.7829 3.51588 22.1352 4.86816C23.4875 6.22043 24.4603 7.90461 24.956 9.75165" stroke="#FEFEFE" stroke-width="1.5" stroke-linecap="round" stroke-linejoin="round"/>
<path id="Vector_2" d="M16.125 6.25146C17.2359 6.5465 18.249 7.12995 19.0618 7.9427C19.8745 8.75544 20.458 9.7686 20.753 10.8795" stroke="#FEFEFE" stroke-width="1.5" stroke-linecap="round" stroke-linejoin="round"/>
<path id="Vector_3" d="M8.14619 13.5866C9.26674 15.9006 11.1379 17.767 13.4548 18.8816C13.6257 18.9625 13.8147 18.9975 14.0033 18.9832C14.1918 18.9689 14.3734 18.9057 14.5301 18.7999L17.9331 16.5267C18.0834 16.4248 18.2571 16.3625 18.438 16.3459C18.6189 16.3292 18.8011 16.3587 18.9676 16.4314L25.3379 19.1674C25.5556 19.258 25.7375 19.4177 25.8555 19.6219C25.9736 19.826 26.0213 20.0633 25.9912 20.2972C25.7893 21.8731 25.0201 23.3214 23.8276 24.3712C22.635 25.4209 21.1008 26.0002 19.512 26.0006C14.6023 26.0006 9.89373 24.0502 6.42205 20.5785C2.95037 17.1068 1 12.3982 1 7.48848C1.00036 5.8997 1.57961 4.36549 2.62937 3.17293C3.67912 1.98036 5.12745 1.21116 6.70334 1.00925C6.93724 0.979207 7.17453 1.02689 7.37868 1.14495C7.58282 1.26301 7.7425 1.4449 7.83311 1.66262L10.5691 8.04656C10.6402 8.21038 10.67 8.38918 10.6558 8.56721C10.6415 8.74524 10.5837 8.91703 10.4874 9.06745L8.21425 12.5249C8.11304 12.6812 8.05364 12.861 8.04173 13.0468C8.02981 13.2327 8.06578 13.4186 8.14619 13.5866Z" stroke="#FEFEFE" stroke-width="1.5" stroke-linecap="round" stroke-linejoin="round"/>
</g>
</svg>
